<svg xmlns="http://www.w3.org/2000/svg" width="988.09" height="216.67" viewBox="0 0 988.09 216.67">
  <g id="Group_317" data-name="Group 317" transform="translate(-450 -8968.999)">
    <g id="Vector_Smart_Object" data-name="Vector Smart Object" transform="translate(345.221 8884.763)">
      <g id="Group_4" data-name="Group 4">
        <g id="Group_3" data-name="Group 3">
          <g id="Group_1" data-name="Group 1">
            <path id="Path_1" data-name="Path 1" d="M138.611,155.752l3.664,3.665-15.966,15.956-1.9,1.9-3.665-3.665,1.9-1.9Z" fill="#f8c6c6"/>
            <path id="Path_2" data-name="Path 2" d="M197.813,103.867l-1.9,1.9-6,6a19.947,19.947,0,0,0-3.665-3.664l6-6,1.9-1.9Z" fill="#f8c6c6"/>
          </g>
          <g id="Group_2" data-name="Group 2">
            <path id="Path_3" data-name="Path 3" d="M159.279,84.237a54.5,54.5,0,1,0,54.5,54.5A54.56,54.56,0,0,0,159.279,84.237Zm0,103.81a49.165,49.165,0,0,1-32.97-12.675,47.1,47.1,0,0,1-3.665-3.665,49.284,49.284,0,0,1,69.6-69.6,46.754,46.754,0,0,1,3.665,3.665,49.284,49.284,0,0,1-36.634,82.279Z" fill="#f8c6c6"/>
          </g>
        </g>
        <path id="Path_4" data-name="Path 4" d="M184.536,113.491a15.248,15.248,0,0,1,1.04,20.406L164.119,112.44a15.247,15.247,0,0,1,20.417,1.05Z" fill="#f8c6c6"/>
        <path id="Path_5" data-name="Path 5" d="M130.867,122.46a12.888,12.888,0,0,1,18.2,0l4.412,4.412,7.734,7.734-2.969,2.969L143,152.814l-12.135-12.146A12.881,12.881,0,0,1,130.867,122.46Z" fill="#f8c6c6"/>
        <path id="Path_6" data-name="Path 6" d="M175.556,167.16a12.9,12.9,0,0,1-18.208,0L145.2,155.015l15.239-15.229,2.969-2.98,7.734,7.734,4.412,4.411A12.9,12.9,0,0,1,175.556,167.16Z" fill="#f8c6c6"/>
        <path id="Path_7" data-name="Path 7" d="M173.75,139.516a3.1,3.1,0,0,1-.311-.01l-14.928-14.928a3.1,3.1,0,0,1-.01-.311,15.139,15.139,0,0,1,3.415-9.623h0L183.375,136.1h0A15.18,15.18,0,0,1,173.75,139.516Z" fill="#f8c6c6"/>
      </g>
    </g>
    <g id="Vector_Smart_Object-2" data-name="Vector Smart Object" transform="translate(249.511 8884.764)">
      <g id="Group_11" data-name="Group 11">
        <g id="Group_5" data-name="Group 5">
          <path id="Path_8" data-name="Path 8" d="M383.989,193.237a54.5,54.5,0,1,1,54.5-54.5A54.562,54.562,0,0,1,383.989,193.237Zm0-103.81a49.31,49.31,0,1,0,49.309,49.31A49.365,49.365,0,0,0,383.989,89.427Z" fill="#f8c6c6"/>
        </g>
        <g id="Group_6" data-name="Group 6">
          <path id="Path_9" data-name="Path 9" d="M364.081,161.014c.156.28.322.54.5.8L349.122,177.27l-3.675-3.664,17.388-17.388A10.1,10.1,0,0,0,364.081,161.014Z" fill="#f8c6c6"/>
          <path id="Path_10" data-name="Path 10" d="M374.327,144.726l15.218-15.218v7.339L368.39,158a4.743,4.743,0,0,1,.363-4.37Z" fill="#f8c6c6"/>
          <path id="Path_11" data-name="Path 11" d="M422.526,103.867l-27.79,27.79v-3.374a6.261,6.261,0,0,0,1.941-4.537v-1.37L418.851,100.2Z" fill="#f8c6c6"/>
        </g>
        <g id="Group_8" data-name="Group 8">
          <g id="Group_7" data-name="Group 7">
            <path id="Path_12" data-name="Path 12" d="M399.221,153.633l-9.675-15.458v-13.35h.872a1.077,1.077,0,0,0,1.07-1.08v-1.63a1.077,1.077,0,0,0-1.07-1.08H377.556a1.077,1.077,0,0,0-1.069,1.08v1.63a1.077,1.077,0,0,0,1.069,1.08h.872v13.35l-4.1,6.551-5.574,8.907a4.791,4.791,0,0,0,4.059,7.329h22.36A4.782,4.782,0,0,0,399.221,153.633Zm-21.464,4.747a3.507,3.507,0,1,1,3.5-3.5A3.5,3.5,0,0,1,377.757,158.38Zm3.505-7.674a1.085,1.085,0,1,1,1.08-1.09A1.09,1.09,0,0,1,381.262,150.706Zm6.1,6.675a2.507,2.507,0,1,1,2.515-2.5A2.509,2.509,0,0,1,387.363,157.381Zm.008-7.144a2.628,2.628,0,1,1,2.622-2.635A2.628,2.628,0,0,1,387.371,150.236Z" fill="#f8c6c6"/>
          </g>
        </g>
        <g id="Group_9" data-name="Group 9">
          <path id="Path_13" data-name="Path 13" d="M350.725,124.342c4.525.913,7.144,4.517,6.27,8.848a7.412,7.412,0,1,1-14.536-2.9,7.137,7.137,0,0,1,6.931-6.069l-.806,3.993a3.423,3.423,0,0,0-2.55,2.762,3.779,3.779,0,0,0,7.394,1.492,3.342,3.342,0,0,0-1.138-3.492l-.693,3.435-2.4-.485Z" fill="#f8c6c6"/>
          <path id="Path_14" data-name="Path 14" d="M367.678,115.453l-6.613-4.857,3.262,8.357-.8.827-8.462-2.972,5.09,6.427-2.738,2.835-8.669-11.344,2.7-2.793,7.835,2.946-3.2-7.743,2.7-2.794,11.623,8.287Z" fill="#f8c6c6"/>
          <path id="Path_15" data-name="Path 15" d="M368.573,106.4c-.963-4.2,1.5-7.947,5.919-8.96s8.243,1.278,9.21,5.494-1.488,7.944-5.9,8.955S369.536,110.6,368.573,106.4ZM377,108.359a3.8,3.8,0,1,0-4.479-2.867A3.62,3.62,0,0,0,377,108.359Z" fill="#f8c6c6"/>
        </g>
        <g id="Group_10" data-name="Group 10">
          <path id="Path_16" data-name="Path 16" d="M389.825,169.682l.431,2.2,4.452-.869.652,3.34-4.451.87.948,4.855-3.85.752L385.3,166.981l8.817-1.721.674,3.453Z" fill="#f8c6c6"/>
          <path id="Path_17" data-name="Path 17" d="M404.98,170.137l-1.167.791,2.421,3.577-3.221,2.179-7.911-11.69,5.067-3.429a4.926,4.926,0,0,1,7.147,1.2,4.519,4.519,0,0,1,.379,4.557l5.2,2.68-3.595,2.433Zm-3-1.923,1.472-1a1.542,1.542,0,1,0-1.718-2.539l-1.472,1Z" fill="#f8c6c6"/>
          <path id="Path_18" data-name="Path 18" d="M419.146,155.685l2.831,1.833-5,7.724-11.847-7.675,4.912-7.581,2.821,1.828-2.806,4.331,1.744,1.13,2.521-3.891,2.677,1.735-2.521,3.891,1.773,1.15Z" fill="#f8c6c6"/>
          <path id="Path_19" data-name="Path 19" d="M422.891,141.749l3.305.675-1.839,9.017-13.832-2.822,1.806-8.849,3.294.671-1.031,5.057,2.036.416.928-4.544,3.125.639-.928,4.542,2.071.423Z" fill="#f8c6c6"/>
        </g>
      </g>
    </g>
    <g id="Vector_Smart_Object-3" data-name="Vector Smart Object" transform="translate(146.801 8884.763)">
      <g id="Group_20" data-name="Group 20">
        <g id="Group_15" data-name="Group 15">
          <g id="Group_12" data-name="Group 12">
            <path id="Path_20" data-name="Path 20" d="M579.268,106.49l1.07,1.181,2.384-2.16,1.62,1.788-2.384,2.16,2.355,2.6-2.062,1.867-6.719-7.418,4.721-4.276,1.675,1.849Z" fill="#f8c6c6"/>
            <path id="Path_21" data-name="Path 21" d="M591.582,105.014l-3.085,1.753.321,1.687-2.569,1.46-1.526-10.647,2.344-1.331,8.439,6.719-2.641,1.5Zm-4.146-3.7.579,3.239,1.916-1.088Z" fill="#f8c6c6"/>
            <path id="Path_22" data-name="Path 22" d="M593.727,100.059a5.165,5.165,0,0,1,3.893-6.395,4.97,4.97,0,0,1,5.943,2.921l-2.711.674a2.366,2.366,0,0,0-2.6-1.1,2.689,2.689,0,0,0,1.293,5.2,2.3,2.3,0,0,0,1.754-2.329l2.737-.681a5,5,0,0,1-3.874,5.517A5.162,5.162,0,0,1,593.727,100.059Z" fill="#f8c6c6"/>
            <path id="Path_23" data-name="Path 23" d="M605.527,92.67l2.792-.1.377,10-2.792.106Z" fill="#f8c6c6"/>
            <path id="Path_24" data-name="Path 24" d="M616.849,100.762l-.3,2.506-6.309-.753,1.186-9.935,2.773.332-.887,7.428Z" fill="#f8c6c6"/>
            <path id="Path_25" data-name="Path 25" d="M620.118,93.993l2.684.771-2.761,9.613-2.683-.77Z" fill="#f8c6c6"/>
            <path id="Path_26" data-name="Path 26" d="M631.558,101.306l-2.44-1.2-3.31,6.753-2.485-1.218,3.31-6.754-2.439-1.2,1.092-2.228,7.365,3.61Z" fill="#f8c6c6"/>
            <path id="Path_27" data-name="Path 27" d="M635.463,108.9l-2.511,3-2.153-1.8,2.516-3.006,1.242-6.894,2.344,1.961-.917,3.946,3.723-1.6,2.344,1.962Z" fill="#f8c6c6"/>
          </g>
          <g id="Group_13" data-name="Group 13">
            <path id="Path_28" data-name="Path 28" d="M576.153,164.6a5.163,5.163,0,0,1,7.483-.043,4.967,4.967,0,0,1,.632,6.588l-2-1.953a2.367,2.367,0,0,0-.433-2.791,2.687,2.687,0,0,0-3.744,3.828,2.3,2.3,0,0,0,2.9.271l2.015,1.97a5,5,0,0,1-6.726-.4A5.16,5.16,0,0,1,576.153,164.6Z" fill="#f8c6c6"/>
            <path id="Path_29" data-name="Path 29" d="M589.375,178.263l-1.216,2.058L582.542,177l5.09-8.615,5.512,3.257-1.212,2.052-3.15-1.86-.75,1.268,2.83,1.672-1.15,1.946-2.83-1.672-.762,1.29Z" fill="#f8c6c6"/>
            <path id="Path_30" data-name="Path 30" d="M595.42,179.843l-.951-.3-.933,2.914-2.624-.84,3.05-9.525,4.128,1.322a3.491,3.491,0,0,1,2.463,4.5,3.206,3.206,0,0,1-2.374,2.206l.782,4.07-2.928-.938Zm-.244-2.515,1.2.384a1.093,1.093,0,1,0,.663-2.068l-1.2-.384Z" fill="#f8c6c6"/>
            <path id="Path_31" data-name="Path 31" d="M609.505,177.664l-2.708-.226-.625,7.5-2.758-.23.625-7.5-2.708-.226.206-2.472,8.174.682Z" fill="#f8c6c6"/>
            <path id="Path_32" data-name="Path 32" d="M610.362,174.968l2.783-.232.831,9.969-2.782.232Z" fill="#f8c6c6"/>
            <path id="Path_33" data-name="Path 33" d="M617.816,176.4l.38,1.546,3.122-.765.575,2.342-3.121.766.835,3.4-2.7.663-2.384-9.714,6.181-1.516.595,2.421Z" fill="#f8c6c6"/>
            <path id="Path_34" data-name="Path 34" d="M621.487,172.689l2.572-1.086,3.892,9.214-2.572,1.087Z" fill="#f8c6c6"/>
            <path id="Path_35" data-name="Path 35" d="M634.911,174.068l1.272,2.025-5.523,3.47-5.322-8.472,5.421-3.4,1.268,2.017-3.1,1.946.784,1.248,2.782-1.749,1.2,1.915-2.783,1.748.8,1.268Z" fill="#f8c6c6"/>
            <path id="Path_36" data-name="Path 36" d="M641.543,164.141a4.9,4.9,0,0,1-.041,7.2l-2.837,2.89-7.14-7.007,2.836-2.89A4.878,4.878,0,0,1,641.543,164.141Zm-1.979,2.018a2.332,2.332,0,0,0-3.492.031l-.806.822,3.537,3.471.806-.821A2.35,2.35,0,0,0,639.564,166.159Z" fill="#f8c6c6"/>
          </g>
          <g id="Group_14" data-name="Group 14">
            <path id="Path_37" data-name="Path 37" d="M608.7,193.237a54.5,54.5,0,1,1,54.5-54.5A54.561,54.561,0,0,1,608.7,193.237Zm0-103.809a49.31,49.31,0,1,0,49.309,49.309A49.365,49.365,0,0,0,608.7,89.428Z" fill="#f8c6c6"/>
          </g>
        </g>
        <g id="Group_16" data-name="Group 16">
          <path id="Path_38" data-name="Path 38" d="M633.825,154.7a29.744,29.744,0,0,1-50.254,0h-3.633a32.892,32.892,0,0,0,57.531,0ZM608.7,108.944a29.742,29.742,0,0,1,24.706,13.183h3.685a32.879,32.879,0,0,0-56.784,0h3.675A29.76,29.76,0,0,1,608.7,108.944Z" fill="#f8c6c6"/>
        </g>
        <g id="Group_17" data-name="Group 17">
          <path id="Path_39" data-name="Path 39" d="M592.368,137.53c0,8.432-5.5,14.423-13.574,14.423-7.9,0-13.728-5.675-13.728-13.514s5.726-13.557,13.665-13.557c6.754,0,12.279,4.227,13.37,10.216h-7.44a6.25,6.25,0,0,0-5.867-3.567c-3.859,0-6.461,2.791-6.461,6.908,0,4.075,2.559,6.866,6.461,6.866,2.71,0,5.033-1.311,5.843-3.3h-6.4v-4.476Z" fill="#f8c6c6"/>
          <path id="Path_40" data-name="Path 40" d="M621.143,151.3l-2.011-14.841L612.3,151.345h-2.1l-6.831-14.877L601.387,151.3h-7.195l3.9-25.769h7.089l6.068,14.023,6.108-14.023h7.089l3.861,25.769Z" fill="#f8c6c6"/>
          <path id="Path_41" data-name="Path 41" d="M652.333,134.844a9.173,9.173,0,0,1-9.547,9.342h-3.856V151.3h-7.115V125.533h10.971A9.148,9.148,0,0,1,652.333,134.844Zm-7.3.016a2.961,2.961,0,0,0-3.1-3.127h-3v6.254h3A2.961,2.961,0,0,0,645.035,134.86Z" fill="#f8c6c6"/>
        </g>
        <g id="Group_18" data-name="Group 18">
          <path id="Path_42" data-name="Path 42" d="M608.7,113.048l.958,2.947h3.1l-2.507,1.821.958,2.947-2.507-1.821-2.507,1.821.957-2.947-2.507-1.821h3.1Z" fill="#f8c6c6"/>
        </g>
        <g id="Group_19" data-name="Group 19">
          <path id="Path_43" data-name="Path 43" d="M608.7,156.521l.958,2.947h3.1l-2.507,1.821.958,2.947-2.507-1.821-2.507,1.821.957-2.947-2.507-1.821h3.1Z" fill="#f8c6c6"/>
        </g>
      </g>
    </g>
    <g id="Vector_Smart_Object-4" data-name="Vector Smart Object" transform="translate(50.091 8884.764)">
      <g id="Group_26" data-name="Group 26">
        <g id="Group_21" data-name="Group 21">
          <path id="Path_44" data-name="Path 44" d="M833.409,193.237a54.5,54.5,0,1,1,54.5-54.5A54.562,54.562,0,0,1,833.409,193.237Zm0-103.81a49.31,49.31,0,1,0,49.31,49.31A49.365,49.365,0,0,0,833.409,89.427Z" fill="#f8c6c6"/>
        </g>
        <g id="Group_22" data-name="Group 22">
          <path id="Path_45" data-name="Path 45" d="M817.063,151.415a14.813,14.813,0,0,0,2.575,4.765l-21.094,21.094-3.675-3.675Z" fill="#f8c6c6"/>
          <path id="Path_46" data-name="Path 46" d="M838.531,137.286l-2.242,2.242-2.543,2.543a5.218,5.218,0,0,0-2.388-.571,5.49,5.49,0,0,0-1.359.177,5.159,5.159,0,0,0-1.412.612,5.077,5.077,0,0,0-.965.758l-.021.01c-.1.1-.207.218-.3.332a5.292,5.292,0,0,0-.654,5.792l-4.8,4.786a11.8,11.8,0,0,1-2.232-5.118l7.184-7.184,1.339-1.339,1.412-1.412,3.852-3.852a12.013,12.013,0,0,1,3.26,1.059,11.167,11.167,0,0,1,1.36.8A5.725,5.725,0,0,1,838.531,137.286Z" fill="#f8c6c6"/>
          <path id="Path_47" data-name="Path 47" d="M847.634,128.182l-5.014,5.024h-.01a4.966,4.966,0,0,0-1.173-.135,5.2,5.2,0,0,0-1.879.353h-.021a4.015,4.015,0,0,0-.706.342,13.542,13.542,0,0,0-2.865-1.267l11.19-11.18a12,12,0,0,1-1,5.834c-.042.093-.072.156-.114.239a1.532,1.532,0,0,1,.249.093A13.671,13.671,0,0,1,847.634,128.182Z" fill="#f8c6c6"/>
          <path id="Path_48" data-name="Path 48" d="M871.946,103.87l-22.06,22.059c-.01,0-.01-.01-.02-.01a14.754,14.754,0,0,0-.042-7.277L868.272,100.2Z" fill="#f8c6c6"/>
        </g>
        <g id="Group_25" data-name="Group 25">
          <g id="Group_23" data-name="Group 23">
            <path id="Path_49" data-name="Path 49" d="M852.461,143.546a1.391,1.391,0,0,0-.239-.094,2.416,2.416,0,0,0,.114-.239,11.9,11.9,0,0,0-4.7-15.031,13.671,13.671,0,0,0-1.339-.7,1.532,1.532,0,0,0-.249-.093c.042-.083.072-.145.114-.239a11.887,11.887,0,0,0-6.042-15.727l-10.879-4.837-4.848,10.879a11.4,11.4,0,0,0-.841,2.782,15.19,15.19,0,0,1,7.142,4.7,5.6,5.6,0,0,1-.353-.758,5.3,5.3,0,0,1,3.042-6.841,5.225,5.225,0,0,1,1.889-.343,5.288,5.288,0,0,1,1.91,10.225l-.021.01A5.254,5.254,0,0,1,831.492,126a14.951,14.951,0,0,1,2.5,6,14.1,14.1,0,0,1,1.972.5,13.542,13.542,0,0,1,2.865,1.267,4.015,4.015,0,0,1,.706-.342h.021a5.2,5.2,0,0,1,1.879-.353,4.966,4.966,0,0,1,1.173.135h.01a5.271,5.271,0,0,1,2.886,8.544,13.866,13.866,0,0,1,.654,2.419,15.06,15.06,0,0,1,12.395,14.8v.177A11.9,11.9,0,0,0,852.461,143.546Zm-8.938,3.509h-.01a1.911,1.911,0,0,0-.249.01,2.078,2.078,0,0,0,.01-.26,12.146,12.146,0,0,0-.467-3.332,12.36,12.36,0,0,0-.53-1.464,3.714,3.714,0,0,1-4.256-5.087,11.167,11.167,0,0,0-1.36-.8,12.035,12.035,0,0,0-5.3-1.235h-.02a1.826,1.826,0,0,0-.239.01,2.18,2.18,0,0,0,.01-.26,11.889,11.889,0,0,0-7.671-11.139,11.468,11.468,0,0,0-1.6-.488,13.513,13.513,0,0,0,6.841,11.045,13.23,13.23,0,0,0-.539,6.27,11.664,11.664,0,0,0,.446,1.962,5.159,5.159,0,0,1,1.412-.612,5.49,5.49,0,0,1,1.359-.177,5.218,5.218,0,0,1,2.388.571,5.125,5.125,0,0,1,1.36.976,5.3,5.3,0,0,1,1.038,6,5.125,5.125,0,0,1-1.038,1.484l-.01.01a6.281,6.281,0,0,1-.488.426,13.522,13.522,0,0,0,7.536,15.779l9.332,4.132h3.582l.384-.861V158.972A11.9,11.9,0,0,0,843.524,147.055Zm-3.758,8.17.02-.01a5.248,5.248,0,0,1,2.585-1.422,5.418,5.418,0,0,1,1.153-.125c.145,0,.3.01.446.021a3.749,3.749,0,0,1,2.315-2.751,3.635,3.635,0,0,1,1.329-.249,3.763,3.763,0,0,1,3.5,2.4,3.682,3.682,0,0,1-.072,2.855,3.724,3.724,0,0,1-2.076,1.972,1.462,1.462,0,0,1-.228.072,5.522,5.522,0,0,1,.042,1.6,5.292,5.292,0,1,1-9.011-4.36Z" fill="#f8c6c6"/>
            <path id="Path_50" data-name="Path 50" d="M842.278,142.009a12.449,12.449,0,0,0-.779-1.474.092.092,0,0,1-.052.01,2.172,2.172,0,0,1-2.128-2.626c-.249-.218-.519-.436-.789-.633l-2.242,2.242a4.645,4.645,0,0,0,.218.737,5.3,5.3,0,0,0,4.942,3.394,5.174,5.174,0,0,0,1.36-.187A12.36,12.36,0,0,0,842.278,142.009Zm10.288,10.516a5.318,5.318,0,0,0-4.952-3.394,5.245,5.245,0,0,0-1.889.353h-.01a5.264,5.264,0,0,0-3.343,4.308,5.418,5.418,0,0,1,1.153-.125c.145,0,.3.01.446.021a5.1,5.1,0,0,1,1.516.353,2.2,2.2,0,0,1,1.359-1.651,2.151,2.151,0,0,1,.768-.145,2.2,2.2,0,0,1,2.045,1.391,2.182,2.182,0,0,1-1.256,2.824,1.254,1.254,0,0,1-.187.052,5.421,5.421,0,0,1,.519,1.474,5.522,5.522,0,0,1,.042,1.6,5.047,5.047,0,0,0,.747-.218A5.3,5.3,0,0,0,852.566,152.525Zm-10.288-10.516a12.449,12.449,0,0,0-.779-1.474.092.092,0,0,1-.052.01,2.172,2.172,0,0,1-2.128-2.626c-.249-.218-.519-.436-.789-.633l-2.242,2.242a4.645,4.645,0,0,0,.218.737,5.3,5.3,0,0,0,4.942,3.394,5.174,5.174,0,0,0,1.36-.187A12.36,12.36,0,0,0,842.278,142.009Zm10.288,10.516a5.318,5.318,0,0,0-4.952-3.394,5.245,5.245,0,0,0-1.889.353h-.01a5.264,5.264,0,0,0-3.343,4.308,5.418,5.418,0,0,1,1.153-.125c.145,0,.3.01.446.021a5.1,5.1,0,0,1,1.516.353,2.2,2.2,0,0,1,1.359-1.651,2.151,2.151,0,0,1,.768-.145,2.2,2.2,0,0,1,2.045,1.391,2.182,2.182,0,0,1-1.256,2.824,1.254,1.254,0,0,1-.187.052,5.421,5.421,0,0,1,.519,1.474,5.522,5.522,0,0,1,.042,1.6,5.047,5.047,0,0,0,.747-.218A5.3,5.3,0,0,0,852.566,152.525ZM830.672,133.3c-.083-.031-.145-.063-.239-.1a11.9,11.9,0,0,1-7-9.7,11.468,11.468,0,0,0-1.6-.488,11.079,11.079,0,0,0-1.557-.239,14.977,14.977,0,0,0,2.741,8.2,4.623,4.623,0,0,1,.685.892,14.28,14.28,0,0,0,3.156,2.9,14.926,14.926,0,0,0-.062,6.9,15.581,15.581,0,0,0,.5,1.723c.093-.114.2-.228.3-.332l.021-.01a5.077,5.077,0,0,1,.965-.758,5.159,5.159,0,0,1,1.412-.612,12.277,12.277,0,0,1-.447-2.761,11.874,11.874,0,0,1,1.007-5.388A2.338,2.338,0,0,1,830.672,133.3Zm22.994,36.852-10.89-4.827a11.941,11.941,0,0,1-6.042-15.738c.042-.083.073-.156.114-.228-.083-.031-.155-.052-.249-.093-.156-.073-.312-.145-.457-.218a5.125,5.125,0,0,1-1.038,1.484l-.01.01a6.281,6.281,0,0,1-.488.426,5.4,5.4,0,0,1-1.786.913,15.072,15.072,0,0,0,8.689,16.288l6.135,2.719,3.83-.01h3.966v-4.723Zm-1.1-17.627a5.318,5.318,0,0,0-4.952-3.394,5.245,5.245,0,0,0-1.889.353h-.01a5.264,5.264,0,0,0-3.343,4.308,5.418,5.418,0,0,1,1.153-.125c.145,0,.3.01.446.021a5.1,5.1,0,0,1,1.516.353,2.2,2.2,0,0,1,1.359-1.651,2.151,2.151,0,0,1,.768-.145,2.2,2.2,0,0,1,2.045,1.391,2.182,2.182,0,0,1-1.256,2.824,1.254,1.254,0,0,1-.187.052,5.421,5.421,0,0,1,.519,1.474,5.522,5.522,0,0,1,.042,1.6,5.047,5.047,0,0,0,.747-.218A5.3,5.3,0,0,0,852.566,152.525Zm-10.288-10.516a12.449,12.449,0,0,0-.779-1.474.092.092,0,0,1-.052.01,2.172,2.172,0,0,1-2.128-2.626c-.249-.218-.519-.436-.789-.633l-2.242,2.242a4.645,4.645,0,0,0,.218.737,5.3,5.3,0,0,0,4.942,3.394,5.174,5.174,0,0,0,1.36-.187A12.36,12.36,0,0,0,842.278,142.009Zm10.288,10.516a5.318,5.318,0,0,0-4.952-3.394,5.245,5.245,0,0,0-1.889.353h-.01a5.264,5.264,0,0,0-3.343,4.308,5.418,5.418,0,0,1,1.153-.125c.145,0,.3.01.446.021a5.1,5.1,0,0,1,1.516.353,2.2,2.2,0,0,1,1.359-1.651,2.151,2.151,0,0,1,.768-.145,2.2,2.2,0,0,1,2.045,1.391,2.182,2.182,0,0,1-1.256,2.824,1.254,1.254,0,0,1-.187.052,5.421,5.421,0,0,1,.519,1.474,5.522,5.522,0,0,1,.042,1.6,5.047,5.047,0,0,0,.747-.218A5.3,5.3,0,0,0,852.566,152.525Zm-10.288-10.516a12.449,12.449,0,0,0-.779-1.474.092.092,0,0,1-.052.01,2.172,2.172,0,0,1-2.128-2.626c-.249-.218-.519-.436-.789-.633a5.725,5.725,0,0,0-.509-.363,11.167,11.167,0,0,0-1.36-.8,5.234,5.234,0,0,0-.374,3.4,4.645,4.645,0,0,0,.218.737,5.3,5.3,0,0,0,4.942,3.394,5.174,5.174,0,0,0,1.36-.187A12.36,12.36,0,0,0,842.278,142.009Zm10.288,10.516a5.318,5.318,0,0,0-4.952-3.394,5.245,5.245,0,0,0-1.889.353h-.01a5.264,5.264,0,0,0-3.343,4.308,5.418,5.418,0,0,1,1.153-.125c.145,0,.3.01.446.021a5.1,5.1,0,0,1,1.516.353,2.2,2.2,0,0,1,1.359-1.651,2.151,2.151,0,0,1,.768-.145,2.2,2.2,0,0,1,2.045,1.391,2.182,2.182,0,0,1-1.256,2.824,1.254,1.254,0,0,1-.187.052,5.421,5.421,0,0,1,.519,1.474,5.522,5.522,0,0,1,.042,1.6,5.047,5.047,0,0,0,.747-.218A5.3,5.3,0,0,0,852.566,152.525Zm-10.288-10.516a12.449,12.449,0,0,0-.779-1.474.092.092,0,0,1-.052.01,2.172,2.172,0,0,1-2.128-2.626c-.249-.218-.519-.436-.789-.633a5.725,5.725,0,0,0-.509-.363,11.167,11.167,0,0,0-1.36-.8,5.234,5.234,0,0,0-.374,3.4,4.645,4.645,0,0,0,.218.737,5.3,5.3,0,0,0,4.942,3.394,5.174,5.174,0,0,0,1.36-.187A12.36,12.36,0,0,0,842.278,142.009Zm10.288,10.516a5.318,5.318,0,0,0-4.952-3.394,5.245,5.245,0,0,0-1.889.353h-.01a5.264,5.264,0,0,0-3.343,4.308,5.418,5.418,0,0,1,1.153-.125c.145,0,.3.01.446.021a5.1,5.1,0,0,1,1.516.353,2.2,2.2,0,0,1,1.359-1.651,2.151,2.151,0,0,1,.768-.145,2.2,2.2,0,0,1,2.045,1.391,2.182,2.182,0,0,1-1.256,2.824,1.254,1.254,0,0,1-.187.052,5.421,5.421,0,0,1,.519,1.474,5.522,5.522,0,0,1,.042,1.6,5.047,5.047,0,0,0,.747-.218A5.3,5.3,0,0,0,852.566,152.525Zm-10.288-10.516a12.449,12.449,0,0,0-.779-1.474.092.092,0,0,1-.052.01,2.172,2.172,0,0,1-2.128-2.626c-.249-.218-.519-.436-.789-.633a5.725,5.725,0,0,0-.509-.363,11.167,11.167,0,0,0-1.36-.8,5.234,5.234,0,0,0-.374,3.4,4.645,4.645,0,0,0,.218.737,5.3,5.3,0,0,0,4.942,3.394,5.174,5.174,0,0,0,1.36-.187A12.36,12.36,0,0,0,842.278,142.009Z" fill="#f8c6c6"/>
          </g>
          <g id="Group_24" data-name="Group 24">
            <path id="Path_51" data-name="Path 51" d="M849.659,153.636a2.2,2.2,0,0,0-2.045-1.391,2.151,2.151,0,0,0-.768.145,2.2,2.2,0,0,0-1.359,1.651,5.277,5.277,0,0,1,1.785,1.173,5.387,5.387,0,0,1,.945,1.3,1.254,1.254,0,0,0,.187-.052,2.182,2.182,0,0,0,1.256-2.824Zm-6.135-6.581h-.01a1.911,1.911,0,0,0-.249.01,2.078,2.078,0,0,0,.01-.26,12.146,12.146,0,0,0-.467-3.332,11.619,11.619,0,0,0-1.308-2.938,11.95,11.95,0,0,0-1.713-2.17c-.155-.145-.311-.3-.467-.446-.249-.218-.519-.436-.789-.633a5.725,5.725,0,0,0-.509-.363,11.167,11.167,0,0,0-1.36-.8,12.035,12.035,0,0,0-5.3-1.235h-.02a1.826,1.826,0,0,0-.239.01,2.18,2.18,0,0,0,.01-.26,11.889,11.889,0,0,0-7.671-11.139,11.468,11.468,0,0,0-1.6-.488,11.079,11.079,0,0,0-1.557-.239c-.363-.031-.727-.052-1.09-.052H807.284l-.01,11.917a11.944,11.944,0,0,0,11.917,11.917,2,2,0,0,0,.26-.01,1.992,1.992,0,0,0-.01.26,12.079,12.079,0,0,0,.177,2.045,11.8,11.8,0,0,0,2.232,5.118,11.925,11.925,0,0,0,9.509,4.754,1.99,1.99,0,0,0,.26-.01,2.007,2.007,0,0,0-.01.26,11.945,11.945,0,0,0,11.918,11.917h4.121l3.83-.01h3.966V158.972A11.9,11.9,0,0,0,843.524,147.055Zm0,6.613c.145,0,.3.01.446.021a5.1,5.1,0,0,1,1.516.353,5.277,5.277,0,0,1,1.785,1.173,5.469,5.469,0,0,1,1.464,2.772,5.522,5.522,0,0,1,.042,1.6,5.292,5.292,0,1,1-9.011-4.36l.02-.01a5.248,5.248,0,0,1,2.585-1.422A5.418,5.418,0,0,1,843.524,153.667Zm-20.585-15.3-.01.01a5.337,5.337,0,0,1-3.737,1.547,5.294,5.294,0,1,1,3.748-9.041.673.673,0,0,1,.083.093,4.623,4.623,0,0,1,.685.892A5.287,5.287,0,0,1,822.938,138.366Zm8.419,13.724a5.251,5.251,0,0,1-3.737-1.558,5.069,5.069,0,0,1-.976-1.35,5.292,5.292,0,0,1,.654-5.792c.093-.114.2-.228.3-.332l.021-.01a5.077,5.077,0,0,1,.965-.758,5.159,5.159,0,0,1,1.412-.612,5.49,5.49,0,0,1,1.359-.177,5.218,5.218,0,0,1,2.388.571,5.125,5.125,0,0,1,1.36.976,5.3,5.3,0,0,1,1.038,6,5.125,5.125,0,0,1-1.038,1.484l-.01.01a6.281,6.281,0,0,1-.488.426,5.28,5.28,0,0,1-3.25,1.121Zm18.3,1.547a2.2,2.2,0,0,0-2.045-1.391,2.151,2.151,0,0,0-.768.145,2.2,2.2,0,0,0-1.359,1.651,5.277,5.277,0,0,1,1.785,1.173,5.387,5.387,0,0,1,.945,1.3,1.254,1.254,0,0,0,.187-.052,2.182,2.182,0,0,0,1.256-2.824Z" fill="#f8c6c6"/>
          </g>
        </g>
      </g>
    </g>
    <g id="Vector_Smart_Object-5" data-name="Vector Smart Object" transform="translate(847.221 8665.895)">
      <g id="Group_33" data-name="Group 33">
        <g id="Group_27" data-name="Group 27">
          <path id="Path_52" data-name="Path 52" d="M159.279,412.105a54.5,54.5,0,1,1,54.5-54.5A54.562,54.562,0,0,1,159.279,412.105Zm0-103.809A49.31,49.31,0,1,0,208.589,357.6,49.365,49.365,0,0,0,159.279,308.3Z" fill="#f8c6c6"/>
        </g>
        <g id="Group_28" data-name="Group 28">
          <path id="Path_53" data-name="Path 53" d="M142.519,370.7v7.339l-18.1,18.1-3.675-3.664Z" fill="#f8c6c6"/>
          <path id="Path_54" data-name="Path 54" d="M197.818,322.736,175.343,345.21a16.167,16.167,0,0,0-2.44-4.9l21.24-21.239Z" fill="#f8c6c6"/>
        </g>
        <g id="Group_32" data-name="Group 32">
          <g id="Group_29" data-name="Group 29">
            <path id="Path_55" data-name="Path 55" d="M168.74,389.163H149.818a4.192,4.192,0,0,1-4.187-4.187V349.944a13.2,13.2,0,0,1,3.478-8.952,19.584,19.584,0,0,0,2.214-2.8l3.335-8.963H163.9l3.335,8.963a19.585,19.585,0,0,0,2.214,2.8h0a13.2,13.2,0,0,1,3.478,8.952v35.032A4.192,4.192,0,0,1,168.74,389.163Zm-11.917-56.816-2.764,7.345A21.923,21.923,0,0,1,151.4,343.1a10.09,10.09,0,0,0-2.657,6.846v35.032a1.074,1.074,0,0,0,1.073,1.073H168.74a1.074,1.074,0,0,0,1.073-1.073V349.944a10.09,10.09,0,0,0-2.657-6.846h0a21.923,21.923,0,0,1-2.656-3.406l-.13-.267-2.634-7.079Z" fill="#f8c6c6"/>
          </g>
          <g id="Group_30" data-name="Group 30">
            <path id="Path_56" data-name="Path 56" d="M166.646,353.931v28.957H151.9V358.531a11.378,11.378,0,0,0,3.786,1.015C158.837,359.794,161.2,355.5,166.646,353.931Z" fill="#f8c6c6"/>
          </g>
          <g id="Group_31" data-name="Group 31">
            <rect id="Rectangle_1" data-name="Rectangle 1" width="15.334" height="5.14" rx="1.655" transform="translate(151.612 327.605)" fill="#f8c6c6"/>
          </g>
        </g>
      </g>
    </g>
    <g id="Vector_Smart_Object-6" data-name="Vector Smart Object" transform="translate(749.511 8665.894)">
      <g id="Group_42" data-name="Group 42">
        <g id="Group_34" data-name="Group 34">
          <path id="Path_57" data-name="Path 57" d="M383.989,412.107a54.5,54.5,0,1,1,54.5-54.5A54.562,54.562,0,0,1,383.989,412.107Zm0-103.81a49.31,49.31,0,1,0,49.309,49.31A49.366,49.366,0,0,0,383.989,308.3Z" fill="#f8c6c6"/>
        </g>
        <g id="Group_35" data-name="Group 35">
          <path id="Path_58" data-name="Path 58" d="M366.668,371.258a13.441,13.441,0,0,0,4.754,1.007c-.353.374-.7.768-1.018,1.183l-.53,1.381-.383.945-20.367,20.367-3.675-3.664Z" fill="#f8c6c6"/>
          <path id="Path_59" data-name="Path 59" d="M386.288,354.119a10.4,10.4,0,0,1-.7,4.07,9.831,9.831,0,0,1-.675,1.412,10.379,10.379,0,0,1-2.076,2.574,8.165,8.165,0,0,1-.654.54,1.874,1.874,0,0,1-.166.135c.052.041.1.093.156.135.021.021.041.031.052.052l-.062.063-1.464,1.464c-.042-.042-.083-.073-.125-.114l-.031-.031a10.416,10.416,0,0,1-1.152,1.453,5.656,5.656,0,0,1-.436.436,10.407,10.407,0,0,1-6.872,2.845c-.1.01-.208.01-.3.01a10.28,10.28,0,0,1-2.668-.353l7.765-7.765,1.37-1.37c.311.249.623.5.924.758a11.377,11.377,0,0,1-.675-1.007l2.087-2.087,1.131-1.132,1.153-1.152,3.115-3.115A10.06,10.06,0,0,1,386.288,354.119Z" fill="#f8c6c6"/>
          <path id="Path_60" data-name="Path 60" d="M390.482,351.607a8.718,8.718,0,0,1,1.754,1.422l-2.917,2.917a13.092,13.092,0,0,0,.083-1.92,13.469,13.469,0,0,0-.467-3.177A8.561,8.561,0,0,1,390.482,351.607Z" fill="#f8c6c6"/>
          <path id="Path_61" data-name="Path 61" d="M398.724,339.2a7.219,7.219,0,0,1-6.187,7.017q.887,2.414,1.682,4.827l-1.256,1.256c-.55-1.982-1.121-3.872-1.682-5.657Z" fill="#f8c6c6"/>
          <path id="Path_62" data-name="Path 62" d="M422.528,322.737,402.44,342.824a11.824,11.824,0,0,0-1.474.395,10.344,10.344,0,0,0,.529-6.789l17.357-17.357Z" fill="#f8c6c6"/>
        </g>
        <g id="Group_38" data-name="Group 38">
          <g id="Group_36" data-name="Group 36">
            <path id="Path_63" data-name="Path 63" d="M397.748,335.454a7.192,7.192,0,0,0-6.094,8.429q-1.261-3.207-2.7-6.343a8.3,8.3,0,0,0-6.1-12.031,8.288,8.288,0,0,0,5.409,12.374c.7,1.847,1.453,3.965,2.222,6.291a7.185,7.185,0,0,0-6.332-3.758,7.262,7.262,0,0,0-3.623.976,7.7,7.7,0,0,0,.166.851l.623-.446,1.775,1.131a13.55,13.55,0,0,1,4.495,4.682h.083a7.184,7.184,0,0,0,3.612-.965c.56,1.785,1.132,3.675,1.682,5.657q.141.529.28,1.059c.3-.208.6-.395.924-.582l.519-.3q-.218-.716-.467-1.432-.794-2.414-1.682-4.827a7.213,7.213,0,0,0,5.211-10.765Zm-5.512,17.575a8.718,8.718,0,0,0-1.754-1.422,8.561,8.561,0,0,0-1.547-.758,13.469,13.469,0,0,1,.467,3.177,13.092,13.092,0,0,1-.083,1.92,11.808,11.808,0,0,1-.311,1.734,15.149,15.149,0,0,1,3.8-4.007A6.764,6.764,0,0,0,392.236,353.029Zm-10.817-7.474c-.177.135-.363.27-.53.4a8.661,8.661,0,0,0,2.948,2.325c.218.1.446.208.675.291A10.342,10.342,0,0,0,381.419,345.555Zm4.568,6.384a8.865,8.865,0,0,0-.582-1.723,9.1,9.1,0,0,0-.8-1.5,10.7,10.7,0,0,0-3.457.9l-.965.426.042,1.048a10.878,10.878,0,0,0,1.494,5.118,10.735,10.735,0,0,0,3.2,3.395,9.831,9.831,0,0,0,.675-1.412,10.4,10.4,0,0,0,.7-4.07A10.06,10.06,0,0,0,385.987,351.939Zm17.471,32.243c-.56-.644-1.194-1.35-1.889-2.118-1.121-1.246-2.409-2.637-3.831-4.132-.893-.934-1.837-1.92-2.834-2.938.125-.083.249-.166.363-.249a11.976,11.976,0,0,0,5.056-8.958c.01-.114.01-.228.01-.333a11.406,11.406,0,0,0-.156-2.533c-.083.093-.156.187-.228.28-.156.2-.3.415-.446.623-.312-1.267-.633-2.533-.966-3.768q.343-.078.685-.187a11.58,11.58,0,0,0-.779-1.412,11.98,11.98,0,0,0-2.719-2.98c-.021.01-.052.031-.073.042l-.01.01a12.119,12.119,0,0,0-4.37,4.412,11.691,11.691,0,0,0-.737,1.547,3.825,3.825,0,0,0,.488.021,10.379,10.379,0,0,0,2.543-.3c.177.81.343,1.609.509,2.409a11.831,11.831,0,0,0-3.675-1.744,10.459,10.459,0,0,0-.425,1.5,10.947,10.947,0,0,0-.239,1.672,11.959,11.959,0,0,0,1.09,5.9c-2.2-2.138-4.6-4.37-7.142-6.623-.477-.436-.965-.862-1.453-1.288-.01-.021-.031-.031-.052-.052l-.01.114-.021.342a11.9,11.9,0,0,0,.135,2.657c.747.727,1.495,1.474,2.242,2.232,1.288,1.308,2.574,2.668,3.862,4.059a11.591,11.591,0,0,0-1.734-.831,11.8,11.8,0,0,0-2.512-.675,12.131,12.131,0,0,0,10.132,5.471,12.226,12.226,0,0,0,1.744-.125q.3,2.927.457,5.782c.561.716,1.111,1.453,1.651,2.19q1.869,2.554,3.633,5.232c.063.093.114.176.177.27l.353-.094.28-.083,1.537-.426C404.008,388.335,403.811,386.611,403.458,384.182Zm6.82-24.188c-.218-.01-.425-.021-.644-.021a10.6,10.6,0,0,0-6.436,2.17A15.1,15.1,0,0,1,400.458,374a10.6,10.6,0,0,0,9.82-14Zm-28.07,2.4-.02.322a8.165,8.165,0,0,0,.654-.54Zm22.35-16.693a9.237,9.237,0,0,0-7.536,4.381,8.811,8.811,0,0,0-.862,1.785l1.485,1.152a15.174,15.174,0,0,1,3.665,4.152,9.119,9.119,0,0,0,2.668-2.782A9.257,9.257,0,0,0,404.558,345.7Z" fill="#f8c6c6"/>
          </g>
          <g id="Group_37" data-name="Group 37">
            <path id="Path_64" data-name="Path 64" d="M394.707,359.2a9.129,9.129,0,0,1-3.436.747,11.691,11.691,0,0,0-.737,1.547c-.052.125-.093.26-.135.384a10.459,10.459,0,0,0-.425,1.5,10.555,10.555,0,0,1,3.581,1.786,10.685,10.685,0,0,1,3.062,3.747C396.077,365.548,395.423,362.3,394.707,359.2Zm5.471,3.727a11.354,11.354,0,0,0-.955-3.052,11.58,11.58,0,0,0-.779-1.412,8.243,8.243,0,0,1-1.879.3c1,3.582,1.848,7.039,2.554,10.267a10.554,10.554,0,0,1,1.215-3.571A11.406,11.406,0,0,0,400.177,362.922Zm-2.44,15.011c-.893-.934-1.837-1.92-2.834-2.938.125-.083.249-.166.363-.249-.332.031-.664.052-1,.052a10.514,10.514,0,0,1-6.426-2.18,13.064,13.064,0,0,1-1.194-1.059,11.8,11.8,0,0,0-2.512-.675c-.322-.052-.644-.093-.976-.114q-.421-.031-.841-.031h-.083a13.662,13.662,0,0,0,3.717,4.349,13.47,13.47,0,0,0,5.938,2.616,8.82,8.82,0,0,0,.592-.654c.228.27.457.54.675.82.374.031.737.041,1.111.041.114,0,.228,0,.342-.01q.093.966.155,1.931c.571.717,1.142,1.443,1.7,2.18.561.716,1.111,1.453,1.651,2.19C398.05,382.1,397.925,380,397.738,377.933Zm7.589,8.4q-.763-.9-1.869-2.149c-.56-.644-1.194-1.35-1.889-2.118.633,4.049.924,6.769,1,7.464l1.537-.426,1.515-.425C405.555,388.158,405.461,387.359,405.326,386.331Zm-3.571,3.1c.063.093.114.176.177.27l.353-.094Zm-18.914-27.261a10.379,10.379,0,0,0,2.076-2.574,9.831,9.831,0,0,0,.675-1.412,9.1,9.1,0,0,1-2.72-3.135,9.359,9.359,0,0,1-1.09-4.017,9.462,9.462,0,0,1,3.623-.82,9.1,9.1,0,0,0-.8-1.5,1.4,1.4,0,0,1,.207-.021,2.565,2.565,0,0,1-.3-.114,10.342,10.342,0,0,0-3.094-3.021c-.177.135-.363.27-.53.4a10.042,10.042,0,0,0-1.121,1.07,8.636,8.636,0,0,0,1,1.048c-.083.042-.166.072-.26.114l-1.91.862.072,2.1a12.35,12.35,0,0,0,4.672,9.239c-.218.052-.425.125-.633.187l-1.993.675-.125,2.1a9.692,9.692,0,0,0-.01,1.1c.041.041.083.072.125.114.529.509,1.048,1.017,1.578,1.536.747.727,1.495,1.474,2.242,2.232a10.705,10.705,0,0,1-.841-4.007c-.477-.436-.965-.862-1.453-1.288-.01-.021-.031-.031-.052-.052-.052-.042-.1-.094-.156-.135a1.874,1.874,0,0,0,.166-.135A8.165,8.165,0,0,0,382.841,362.174Zm11.866-2.979a9.129,9.129,0,0,1-3.436.747,11.691,11.691,0,0,0-.737,1.547c-.052.125-.093.26-.135.384a10.459,10.459,0,0,0-.425,1.5,10.555,10.555,0,0,1,3.581,1.786,10.685,10.685,0,0,1,3.062,3.747C396.077,365.548,395.423,362.3,394.707,359.2Zm.934-3.665c0,.021.01.031.01.052v-.062Z" fill="#fff"/>
          </g>
        </g>
        <g id="Group_41" data-name="Group 41">
          <g id="Group_39" data-name="Group 39">
            <path id="Path_65" data-name="Path 65" d="M405.326,386.331q-.763-.9-1.869-2.149c-.56-.644-1.194-1.35-1.889-2.118-1.121-1.246-2.409-2.637-3.831-4.132-.893-.934-1.837-1.92-2.834-2.938.125-.083.249-.166.363-.249a11.976,11.976,0,0,0,5.056-8.958c.01-.114.01-.228.01-.333a11.891,11.891,0,0,0-1.111-5.585,11.58,11.58,0,0,0-.779-1.412,11.98,11.98,0,0,0-2.719-2.98c-.021.01-.052.031-.073.042l-.01.01a12.119,12.119,0,0,0-4.37,4.412,11.691,11.691,0,0,0-.737,1.547c-.052.125-.093.26-.135.384a10.459,10.459,0,0,0-.425,1.5,10.947,10.947,0,0,0-.239,1.672,11.959,11.959,0,0,0,1.09,5.9c-2.2-2.138-4.6-4.37-7.142-6.623-.477-.436-.965-.862-1.453-1.288-.01-.021-.031-.031-.052-.052-.052-.042-.1-.094-.156-.135a1.874,1.874,0,0,0,.166-.135,8.165,8.165,0,0,0,.654-.54,10.379,10.379,0,0,0,2.076-2.574,9.831,9.831,0,0,0,.675-1.412,10.4,10.4,0,0,0,.7-4.07,10.06,10.06,0,0,0-.3-2.18,8.865,8.865,0,0,0-.582-1.723,9.1,9.1,0,0,0-.8-1.5,1.4,1.4,0,0,1,.207-.021,2.565,2.565,0,0,1-.3-.114,10.342,10.342,0,0,0-3.094-3.021c-.177.135-.363.27-.53.4a10.042,10.042,0,0,0-1.121,1.07,10.459,10.459,0,0,0-1.266,12.395,11.377,11.377,0,0,0,.675,1.007c-.3-.26-.612-.509-.924-.758-2.512-2.1-5.139-4.142-7.848-6.135a8.17,8.17,0,0,0-1.785-13.412,8.146,8.146,0,0,0-.5,11.762c-2.128-1.5-4.3-2.938-6.5-4.308a9.372,9.372,0,0,0-9.322-8.409,9.491,9.491,0,0,0-3.935.862,9.362,9.362,0,0,0,9.343,8.959,9.614,9.614,0,0,0,3.467-.654c1.817,1.308,3.841,2.824,6.021,4.547a8.1,8.1,0,0,0-3.81-.955,7.476,7.476,0,0,0-1.069.073,8.143,8.143,0,0,0-6.249,4.453,8.165,8.165,0,0,0,6.115,2.772,9.369,9.369,0,0,0,1.069-.072,8.158,8.158,0,0,0,6.239-4.443c2.346,1.91,4.837,4.017,7.391,6.332a10.483,10.483,0,0,0-4.765-1.153c-.093,0-.2.01-.3.01a10.455,10.455,0,0,0-8.554,4.869,10.454,10.454,0,0,0,5.855,4.038,10.28,10.28,0,0,0,2.668.353c.093,0,.2,0,.3-.01a10.407,10.407,0,0,0,6.872-2.845,5.656,5.656,0,0,0,.436-.436,10.416,10.416,0,0,0,1.152-1.453l.031.031c.041.041.083.072.125.114.529.509,1.048,1.017,1.578,1.536.747.727,1.495,1.474,2.242,2.232,1.288,1.308,2.574,2.668,3.862,4.059a11.591,11.591,0,0,0-1.734-.831,11.8,11.8,0,0,0-2.512-.675c-.322-.052-.644-.093-.976-.114q-.421-.031-.841-.031h-.083a12.012,12.012,0,0,0-9.384,4.63,12.02,12.02,0,0,0,9.572,5.99q.436.031.841.031a11.991,11.991,0,0,0,8.626-3.685,8.82,8.82,0,0,0,.592-.654c.228.27.457.54.675.82.54.643,1.08,1.3,1.609,1.962.571.717,1.142,1.443,1.7,2.18.561.716,1.111,1.453,1.651,2.19q1.869,2.554,3.633,5.232c.063.093.114.176.177.27l.353-.094.28-.083,1.537-.426,1.515-.425,1.36-.384S406.406,387.587,405.326,386.331Z" fill="#f8c6c6"/>
          </g>
          <g id="Group_40" data-name="Group 40">
            <path id="Path_66" data-name="Path 66" d="M384.513,348.575c.031.042.062.093.093.135a1.4,1.4,0,0,1,.207-.021A2.565,2.565,0,0,1,384.513,348.575Z" fill="#fff"/>
          </g>
        </g>
      </g>
    </g>
    <g id="Vector_Smart_Object-7" data-name="Vector Smart Object" transform="translate(648.801 8665.894)">
      <g id="Group_56" data-name="Group 56">
        <g id="Group_53" data-name="Group 53">
          <g id="Group_43" data-name="Group 43">
            <path id="Path_67" data-name="Path 67" d="M608.7,412.107a54.5,54.5,0,1,1,54.5-54.5A54.561,54.561,0,0,1,608.7,412.107Zm0-103.81a49.31,49.31,0,1,0,49.309,49.31A49.366,49.366,0,0,0,608.7,308.3Z" fill="#f8c6c6"/>
          </g>
          <g id="Group_52" data-name="Group 52">
            <g id="Group_44" data-name="Group 44">
              <path id="Path_68" data-name="Path 68" d="M645.334,383.08a45.064,45.064,0,0,1-4.017,4.962H576.082a45.078,45.078,0,0,1-4.017-4.962Z" fill="#f8c6c6"/>
            </g>
            <g id="Group_45" data-name="Group 45">
              <path id="Path_69" data-name="Path 69" d="M650.669,372.772a43.864,43.864,0,0,1-2.138,4.962H568.867a43.886,43.886,0,0,1-2.138-4.962Z" fill="#f8c6c6"/>
            </g>
            <g id="Group_46" data-name="Group 46">
              <path id="Path_70" data-name="Path 70" d="M652.953,363.263a43.3,43.3,0,0,1-.9,4.952h-86.7a43.289,43.289,0,0,1-.9-4.952Z" fill="#f8c6c6"/>
            </g>
            <g id="Group_47" data-name="Group 47">
              <path id="Path_71" data-name="Path 71" d="M653.316,357.6c0,.571-.01,1.132-.031,1.692H599.2v-4.962h53.991Q653.317,355.954,653.316,357.6Z" fill="#f8c6c6"/>
            </g>
            <g id="Group_48" data-name="Group 48">
              <path id="Path_72" data-name="Path 72" d="M652.631,349.778H599.2v-4.962h52.258A45.976,45.976,0,0,1,652.631,349.778Z" fill="#f8c6c6"/>
            </g>
            <g id="Group_49" data-name="Group 49">
              <path id="Path_73" data-name="Path 73" d="M649.9,340.456H599.2V335.5h48.271A46.5,46.5,0,0,1,649.9,340.456Z" fill="#f8c6c6"/>
            </g>
            <g id="Group_50" data-name="Group 50">
              <path id="Path_74" data-name="Path 74" d="M645.334,332.13H599.2v-4.962h42.116A45.067,45.067,0,0,1,645.334,332.13Z" fill="#f8c6c6"/>
            </g>
            <g id="Group_51" data-name="Group 51">
              <path id="Path_75" data-name="Path 75" d="M576.082,327.168a42.939,42.939,0,0,0-3.55,4.318l.063.384-.249-.135a43.941,43.941,0,0,0-4.495,7.91l.28-.041.436-.882.436.882.976.135-.706.685.166.976-.872-.457-.872.457.166-.976-.249-.239a44.409,44.409,0,0,0-2.627,8.429l.249.509.976.145-.706.685.166.965-.872-.457-.156.083a43.36,43.36,0,0,0-.509,4.962l.228-.031.436-.882.436.882.976.135-.706.685.166.976-.872-.457-.716.373v.415c0,.571.01,1.132.031,1.692H596.4V327.168ZM569.439,354.1l-.872-.457-.872.457.166-.965-.7-.7.965-.135.436-.882.436.882.976.135-.706.7Zm-.166-7.319.166.965-.872-.457-.872.457.166-.965-.7-.685.965-.145.436-.883.436.883.976.145Zm3.322,10.5-.872-.457-.872.457.166-.976-.706-.685.976-.135.436-.882.436.882.976.135-.706.685Zm-.166-7.319.166.965-.872-.457-.872.457.166-.965-.706-.685.976-.145.436-.883.436.883.976.145Zm0-6.353.166.976-.872-.467-.872.467.166-.976-.706-.685.976-.145.436-.883.436.883.976.145Zm0-6.343.166.965-.872-.457-.872.457.166-.965-.706-.7.976-.135.436-.883.436.883.976.135Zm3.935,16.838-.872-.457-.872.457.166-.965-.706-.7.976-.135.436-.882.436.882.976.135-.706.7Zm-.166-7.319.166.965-.872-.457-.872.457.166-.965-.706-.685.976-.145.436-.883.436.883.976.145Zm0-6.353.166.976-.872-.457-.872.457.166-.976-.706-.685.976-.135.436-.882.436.882.976.135Zm0-6.343.166.965-.872-.457-.872.457.166-.965-.706-.685.976-.145.436-.883.436.883.976.145Zm3.322,23.191-.872-.457-.872.457.166-.976-.706-.685.976-.135.436-.882.436.882.976.135-.706.685Zm-.166-7.319.166.965-.872-.457-.872.457.166-.965-.706-.685.976-.145.436-.883.436.883.976.145Zm0-6.353.166.976-.872-.467-.872.467.166-.976-.706-.685.976-.145.436-.883.436.883.976.145Zm0-6.343.166.965-.872-.457-.872.457.166-.965-.706-.7.976-.135.436-.883.436.883.976.135Zm0-6.353.166.965-.872-.457-.872.457.166-.965-.706-.685.976-.145.436-.883.436.883.976.145Zm3.935,23.191-.872-.457-.872.457.166-.965-.706-.7.976-.135.436-.882.436.882.976.135-.706.7Zm-.166-7.319.166.965-.872-.457-.872.457.166-.965-.706-.685.976-.145.436-.883.436.883.976.145Zm0-6.353.166.976-.872-.457-.872.457.166-.976L581,339.74l.976-.135.436-.882.436.882.976.135Zm0-6.343.166.965-.872-.457-.872.457.166-.965L581,333.4l.976-.145.436-.883.436.883.976.145Zm3.322,23.191-.872-.457-.872.457.166-.976-.706-.685.976-.135.436-.882.436.882.976.135-.706.685Zm-.166-7.319.166.965-.872-.457-.872.457.166-.965-.706-.685.976-.145.436-.883.436.883.976.145Zm0-6.353.166.976-.872-.467-.872.467.166-.976-.706-.685.976-.145.436-.883.436.883.976.145Zm0-6.343.166.965-.872-.457-.872.457.166-.965-.706-.7.976-.135.436-.883.436.883.976.135Zm0-6.353.166.965-.872-.457-.872.457.166-.965-.706-.685.976-.145.436-.883.436.883.976.145Zm3.935,23.191-.872-.457-.872.457.166-.965-.706-.7.976-.135.436-.882.436.882.976.135-.706.7Zm-.166-7.319.166.965-.872-.457-.872.457.166-.965-.706-.685.976-.145.436-.883.436.883.976.145Zm0-6.353.166.976-.872-.457-.872.457.166-.976-.706-.685.976-.135.436-.882.436.882.976.135Zm0-6.343.166.965-.872-.457-.872.457.166-.965-.706-.685.976-.145.436-.883.436.883.976.145Zm3.322,23.191-.872-.457-.872.457.166-.976-.706-.685.976-.135.436-.882.436.882.976.135-.706.685Zm-.166-7.319.166.965-.872-.457-.872.457.166-.965-.706-.685.976-.145.436-.883.436.883.976.145Zm0-6.353.166.976-.872-.467-.872.467.166-.976-.706-.685.976-.145.436-.883.436.883.976.145Zm0-6.343.166.965-.872-.457-.872.457.166-.965-.706-.7.976-.135.436-.883.436.883.976.135Zm0-6.353.166.965-.872-.457-.872.457.166-.965-.706-.685.976-.145.436-.883.436.883.976.145Z" fill="#f8c6c6"/>
            </g>
          </g>
        </g>
        <g id="Group_54" data-name="Group 54">
          <path id="Path_76" data-name="Path 76" d="M594.272,397.31v-6.132h2.816v6.081a1.551,1.551,0,1,0,3.1,0v-6.081H603v6.132a4.373,4.373,0,0,1-8.732,0Z" fill="#f8c6c6"/>
          <path id="Path_77" data-name="Path 77" d="M604.354,397.95H607.2a1.061,1.061,0,0,0,1.179,1.062c.578,0,1.129-.307,1.129-.853,0-.627-.779-.81-1.731-1.04-1.445-.359-3.291-.8-3.291-3.079,0-1.97,1.447-3.1,3.805-3.1,2.4,0,3.773,1.231,3.773,3.265H609.3a.923.923,0,0,0-1.043-.929c-.491,0-.962.213-.962.68,0,.568.754.756,1.7.993,1.472.38,3.4.872,3.4,3.155,0,2.185-1.679,3.319-4,3.319C605.936,401.424,604.354,400.13,604.354,397.95Z" fill="#f8c6c6"/>
          <path id="Path_78" data-name="Path 78" d="M619.541,399.554H616l-.554,1.625h-2.952l3.929-10h2.693l4.015,10h-3.034Zm-1.778-5.255-1.1,3.1h2.2Z" fill="#f8c6c6"/>
        </g>
        <g id="Group_55" data-name="Group 55">
          <path id="Path_79" data-name="Path 79" d="M594.233,324.058l-.567-4.183-1.926,4.2h-.592l-1.925-4.193-.558,4.181h-2.028l1.1-7.262h2l1.71,3.952,1.721-3.952h2l1.088,7.262Z" fill="#f8c6c6"/>
          <path id="Path_80" data-name="Path 80" d="M601.663,322.878h-2.575l-.4,1.179h-2.144l2.852-7.262h1.956l2.915,7.262h-2.2Zm-1.291-3.816-.8,2.25h1.6Z" fill="#f8c6c6"/>
          <path id="Path_81" data-name="Path 81" d="M611.66,320.42a3.555,3.555,0,0,1-3.749,3.637h-2.939V316.8h2.939A3.541,3.541,0,0,1,611.66,320.42Zm-2.051,0a1.693,1.693,0,0,0-1.792-1.793h-.835v3.6h.835A1.705,1.705,0,0,0,609.608,320.42Z" fill="#f8c6c6"/>
          <path id="Path_82" data-name="Path 82" d="M617.44,322.322v1.735h-4.735V316.8h4.647v1.73H614.7v1.07h2.385v1.64H614.7v1.087Z" fill="#f8c6c6"/>
          <path id="Path_83" data-name="Path 83" d="M620.845,316.8h2.027v7.262h-2.027Z" fill="#f8c6c6"/>
          <path id="Path_84" data-name="Path 84" d="M630.76,316.8v7.262h-1.655l-2.885-3.941v3.941h-1.939V316.8h1.751l2.789,3.81V316.8Z" fill="#f8c6c6"/>
        </g>
      </g>
    </g>
    <g id="Vector_Smart_Object-8" data-name="Vector Smart Object" transform="translate(545.091 8665.894)">
      <g id="Group_64" data-name="Group 64">
        <g id="Group_57" data-name="Group 57">
          <path id="Path_85" data-name="Path 85" d="M833.409,412.107a54.5,54.5,0,1,1,54.5-54.5A54.562,54.562,0,0,1,833.409,412.107Zm0-103.81a49.31,49.31,0,1,0,49.31,49.31A49.366,49.366,0,0,0,833.409,308.3Z" fill="#f8c6c6"/>
        </g>
        <g id="Group_58" data-name="Group 58">
          <path id="Path_86" data-name="Path 86" d="M828.213,366.475l-29.669,29.668-3.674-3.665,25.36-25.361a6.1,6.1,0,0,0,2.295.447,5.937,5.937,0,0,0,4.214-1.744l.405-.405Z" fill="#f8c6c6"/>
          <path id="Path_87" data-name="Path 87" d="M871.948,322.739l-26.99,27-1.07-1.069.405-.4a5.966,5.966,0,0,0,1.287-6.509l22.693-22.692Z" fill="#f8c6c6"/>
        </g>
        <g id="Group_59" data-name="Group 59">
          <path id="Path_88" data-name="Path 88" d="M822.472,356.332l-14.024-14.023a8.723,8.723,0,0,1,12.337-12.337L834.809,344Zm-7.855-25.8a5.606,5.606,0,0,0-3.967,9.573l11.822,11.821L830.4,344l-11.821-11.822A5.594,5.594,0,0,0,814.617,330.534Z" fill="#f8c6c6"/>
        </g>
        <g id="Group_60" data-name="Group 60">
          <path id="Path_89" data-name="Path 89" d="M822.52,364.452a2.835,2.835,0,0,1-2.02-.837l-2.838-2.838a2.86,2.86,0,0,1,0-4.04l17.551-17.551a2.86,2.86,0,0,1,4.039,0l2.838,2.838a2.86,2.86,0,0,1,0,4.039L824.54,363.615A2.836,2.836,0,0,1,822.52,364.452Zm-2.473-5.694,2.473,2.473,17.186-17.187-2.473-2.473Z" fill="#f8c6c6"/>
        </g>
        <g id="Group_61" data-name="Group 61">
          <path id="Path_90" data-name="Path 90" d="M855.69,380.7a3.536,3.536,0,0,1-.648-.06l-6.811-1.284a11.069,11.069,0,0,1-5.8-3.062l-17.487-17.487,12.337-12.337,17.487,17.487a11.068,11.068,0,0,1,3.063,5.8l1.284,6.811a3.487,3.487,0,0,1-3.426,4.133Zm-26.34-21.893,15.285,15.285a7.965,7.965,0,0,0,4.174,2.2l6.811,1.284a.354.354,0,0,0,.333-.1.361.361,0,0,0,.1-.333l-1.284-6.811a7.964,7.964,0,0,0-2.2-4.173l-15.285-15.285Z" fill="#f8c6c6"/>
        </g>
        <g id="Group_62" data-name="Group 62">
          <path id="Path_91" data-name="Path 91" d="M850.318,367.514l.445.445a5.48,5.48,0,0,1,1.51,2.846l.687,3.669-3.678-.678a5.481,5.481,0,0,1-2.846-1.51l-3.678-3.678Z" fill="#f8c6c6"/>
        </g>
        <g id="Group_63" data-name="Group 63">
          <path id="Path_92" data-name="Path 92" d="M856.477,383.335a.778.778,0,0,1,1.311,0l2.206,3.454c1.373,1.986,1.58,4.143,0,5.724h0a4.047,4.047,0,0,1-5.723,0h0c-1.58-1.581-1.278-3.689,0-5.724Z" fill="#f8c6c6"/>
        </g>
      </g>
      <path id="Path_93" data-name="Path 93" d="M829.552,342.9l.074,1.22a1.057,1.057,0,0,0,.833-.946q-4.184,3.963-8.226,8.072c-3.362-4.724-8.953-7.627-11.838-12.656-.859-1.5-1.443-3.375-.677-4.922a4.149,4.149,0,0,1,3.023-2.08,8.768,8.768,0,0,1,3.763.307l-2.676-.859a4.81,4.81,0,0,1,4.113,1.2,21.952,21.952,0,0,1,2.916,3.346,26.894,26.894,0,0,0,6.336,5.721,31.456,31.456,0,0,0-6.541-7.1,43.326,43.326,0,0,0,6.639,8.563c.337-.472,1.179.064,1.094.637s-.682.924-1.243,1.07a1.719,1.719,0,0,1,.527-1.021l-1.563.609a6.16,6.16,0,0,1,3.006-2.447,16.5,16.5,0,0,1-4.008,3.586,2.938,2.938,0,0,1-1.65.592c-1.591-.073-2.395-2.346-3.986-2.415a1.191,1.191,0,0,0,.751,1.8,1.3,1.3,0,0,0,1.37-1.481,1.422,1.422,0,0,0-1.828-.985,1.575,1.575,0,0,0-.867,1.945,1.277,1.277,0,0,0,1.378-1.256,2.77,2.77,0,0,0,2.24,3.432" fill="none" stroke="#f8c6c6" stroke-miterlimit="10" stroke-width="0.496"/>
      <path id="Path_94" data-name="Path 94" d="M825.809,344.56a1.8,1.8,0,0,0-.294-1.682l-3.281,4.23c-2.864-1.18-4.057-4.487-5.837-7.022a14.522,14.522,0,0,0-3.643-3.606,1.258,1.258,0,0,0-1.038-.308,6.249,6.249,0,0,1,2.173,3.747,5.748,5.748,0,0,1-1.54-2.647c-.448-1.251-.836-2.794.047-3.787a2.429,2.429,0,0,1,2.888-.346,4.861,4.861,0,0,1,1.985,2.356c.438.95.726,1.964,1.192,2.9a8.527,8.527,0,0,0,3.005,3.356c.452.291,1.134.5,1.459.073a1.122,1.122,0,0,0,.055-.956,11.85,11.85,0,0,0-1.6-3.563" fill="none" stroke="#f8c6c6" stroke-miterlimit="10" stroke-width="0.496"/>
      <path id="Path_95" data-name="Path 95" d="M822.671,358.529c3.349-1.757,5.632-4.967,8.184-7.757a43,43,0,0,1,4.736-4.451c.969-.781,2.045-1.638,2.254-2.864" fill="none" stroke="#f8c6c6" stroke-miterlimit="10" stroke-width="0.496"/>
    </g>
    <text id="Stimulant_Free" data-name="Stimulant Free" transform="translate(452 9097.669)" font-size="20" font-family="HelveticaNeue, Helvetica Neue"><tspan x="12.697" y="19">Stimulant </tspan><tspan x="35.307" y="41">Free</tspan></text>
    <text id="GMO-Free" transform="translate(577.031 9097.669)" font-size="20" font-family="HelveticaNeue, Helvetica Neue"><tspan x="10.502" y="19">GMO-Free</tspan></text>
    <text id="GMP_Facility_Certified" data-name="GMP Facility Certified" transform="translate(698.031 9097.669)" font-size="20" font-family="HelveticaNeue, Helvetica Neue"><tspan x="1.072" y="19">GMP Facility </tspan><tspan x="20.152" y="41">Certified</tspan></text>
    <text id="Soy_Free" data-name="Soy Free" transform="translate(827.125 9097.669)" font-size="20" font-family="HelveticaNeue, Helvetica Neue"><tspan x="15.308" y="19">Soy Free</tspan></text>
    <text id="Dairy_Free" data-name="Dairy Free" transform="translate(952.906 9097.669)" font-size="20" font-family="HelveticaNeue, Helvetica Neue"><tspan x="9.568" y="19">Dairy Free</tspan></text>
    <text id="Gluten_Free" data-name="Gluten Free" transform="translate(1077.816 9097.669)" font-size="20" font-family="HelveticaNeue, Helvetica Neue"><tspan x="3.138" y="19">Gluten Free</tspan></text>
    <text id="Made_in_USA" data-name="Made in USA" transform="translate(1202.718 9097.669)" font-size="20" font-family="HelveticaNeue, Helvetica Neue"><tspan x="18.757" y="19">Made in </tspan><tspan x="34.517" y="41">USA</tspan></text>
    <text id="No_artificial_colors_or_flavors" data-name="No artificial colors or flavors" transform="translate(1328.09 9097.669)" font-size="20" font-family="HelveticaNeue, Helvetica Neue"><tspan x="4.738" y="19">No artificial </tspan><tspan x="15.658" y="41">colors or </tspan><tspan x="25.288" y="63">flavors</tspan></text>
  </g>
</svg>
